HIERARCHY
ROOT hip
{
	OFFSET 0.000000 0.000000 0.000000 
	CHANNELS 6 Xposition Yposition Zposition Xrotation Zrotation Yrotation
	JOINT abdomen
	{
		OFFSET 0.000000 3.402643 0.000000 
		CHANNELS 3 Xrotation Zrotation Yrotation
		JOINT chest
		{
			OFFSET 0.000000 8.438565 -0.680529 
			CHANNELS 3 Xrotation Zrotation Yrotation
			JOINT neck
			{
				OFFSET 0.000000 10.207942 -0.272212 
				CHANNELS 3 Xrotation Zrotation Yrotation
				JOINT head
				{
					OFFSET 0.000000 3.130431 0.000000 
					CHANNELS 3 Xrotation Zrotation Yrotation
					End Site
					{
						OFFSET 0.000000 3.130435 0.000000 
					}
				}
			}
			JOINT lCollar
			{
				OFFSET 3.470700 6.669187 -0.816635 
				CHANNELS 3 Yrotation Zrotation Xrotation
				JOINT lShldr
				{
					OFFSET 3.198488 0.000000 0.000000 
					CHANNELS 3 Zrotation Yrotation Xrotation
					JOINT lForeArm
					{
						OFFSET 10.139888 0.000000 0.000000 
						CHANNELS 3 Yrotation Zrotation Xrotation
						JOINT lHand
						{
							OFFSET 8.370511 0.000000 0.000000 
							CHANNELS 3 Zrotation Yrotation Xrotation
							End Site
							{
								OFFSET 4.083176 0.000000 0.000000 
							}
						}
					}
				}
			}
			JOINT rCollar
			{
				OFFSET -3.470700 6.669187 -0.816635 
				CHANNELS 3 Yrotation Zrotation Xrotation
				JOINT rShldr
				{
					OFFSET -3.198488 0.000000 0.000000 
					CHANNELS 3 Zrotation Yrotation Xrotation
					JOINT rForeArm
					{
						OFFSET -10.139888 0.000000 0.000000 
						CHANNELS 3 Yrotation Zrotation Xrotation
						JOINT rHand
						{
							OFFSET -8.370511 0.000000 0.000000 
							CHANNELS 3 Zrotation Yrotation Xrotation
							End Site
							{
								OFFSET -4.083176 0.000000 0.000000 
							}
						}
					}
				}
			}
		}
	}
	JOINT lThigh
	{
		OFFSET 5.308129 -1.633274 1.361059 
		CHANNELS 3 Xrotation Zrotation Yrotation
		JOINT lShin
		{
			OFFSET -2.041588 -20.007561 0.000000 
			CHANNELS 3 Xrotation Zrotation Yrotation
			JOINT lFoot
			{
				OFFSET 0.000000 -19.190928 -1.224953 
				CHANNELS 3 Xrotation Yrotation Zrotation
				End Site
				{
					OFFSET 0.000000 -2.449906 4.627600 
				}
			}
		}
	}
	JOINT rThigh
	{
		OFFSET -5.308129 -1.633274 1.361059 
		CHANNELS 3 Xrotation Zrotation Yrotation
		JOINT rShin
		{
			OFFSET 2.041588 -20.007561 0.000000 
			CHANNELS 3 Xrotation Zrotation Yrotation
			JOINT rFoot
			{
				OFFSET 0.000000 -19.190928 -1.224953 
				CHANNELS 3 Xrotation Yrotation Zrotation
				End Site
				{
					OFFSET 0.000000 -2.449906 4.627600 
				}
			}
		}
	}
}
MOTION
Frames: 16
Frame Time: 0.016667
8.505126 43.251026 88.823402 -9.745150 4.350620 5.055020 -17.098200 -0.461963 3.405830 23.015400 4.507580 1.550950 34.364300 -6.812470 -1.102670 22.990801 0.534055 1.480470 2.000000 -2.000000 0.000000 -26.836000 -57.862499 171.397003 41.728901 -0.316881 0.091057 0.048068 -0.033016 -148.796997 -2.000000 2.000000 0.000000 -141.863007 124.893997 -7.534140 -37.549198 0.323242 0.083324 -0.057902 0.033337 -148.914001 15.011569 -9.962038 -9.263709 18.850336 4.495148 1.161395 -15.661009 2.548666 -0.913518 -2.717887 -12.256262 -5.855605 20.305267 -7.965027 -1.245896 -13.882868 -7.838205 -0.650957 
8.453125 43.280479 89.122108 -9.669490 4.553790 5.494620 -17.224501 -0.574369 3.495470 23.014799 4.322210 1.572300 34.390202 -6.417630 -0.975228 23.031200 0.746196 1.524730 2.000000 -2.000000 0.000000 -26.698999 -57.803501 171.574005 41.787498 -0.316788 0.091161 0.048068 -0.033016 -148.796997 -2.000000 2.000000 0.000000 -141.619003 124.953003 -7.397570 -37.529701 0.323270 0.083287 -0.057964 0.033632 -149.020996 15.112198 -10.018556 -9.320086 19.186846 4.517901 1.174597 -15.628544 2.211390 -1.020748 -2.978657 -12.369456 -5.750812 20.247641 -8.140702 -1.252766 -13.582191 -7.580037 -0.492819 
8.376331 43.289871 89.435204 -9.672840 4.794470 6.303360 -17.245501 -0.607477 3.434920 23.113100 4.438950 1.536050 34.323002 -6.558330 -1.074820 23.020901 0.663162 1.476450 2.000000 -2.000000 0.000000 -26.816500 -57.852200 171.602005 41.885201 -0.316632 0.091335 0.047945 -0.032427 -148.582001 -2.000000 2.000000 0.000000 -141.865005 125.196999 -7.437230 -37.666401 0.323071 0.083546 -0.058010 0.033845 -149.098999 15.311700 -9.952190 -9.614672 19.526155 4.527442 1.186427 -15.569234 2.004493 -1.101293 -2.965889 -12.507832 -5.945816 20.140015 -8.356653 -1.254565 -13.252118 -7.526016 -0.354539 
8.297649 43.303116 89.728065 -9.553650 5.345190 6.816860 -17.539000 -0.840019 3.538350 22.779800 4.332690 1.545250 34.262600 -6.485270 -1.094660 22.913401 0.654585 1.481800 2.000000 -2.000000 0.000000 152.919998 -122.255997 -8.006450 41.826599 -0.316726 0.091230 0.047782 -0.031624 -148.289001 -2.000000 2.000000 0.000000 -141.279007 125.344002 -7.240480 -37.480900 0.323341 0.083195 -0.057907 0.033364 -148.923996 15.409315 -10.292461 -9.775001 19.877157 4.486118 1.209710 -15.220034 1.700591 -1.204769 -3.220421 -12.867562 -5.554755 20.211876 -8.648290 -1.284166 -13.039913 -7.768645 -0.213636 
8.213104 43.313652 90.032051 -9.476860 5.452370 7.460840 -17.322599 -0.660802 3.515350 23.339399 4.682000 1.575010 34.084202 -6.445390 -1.081460 22.874901 0.737994 1.441420 2.000000 -2.000000 0.000000 -26.857300 -58.116501 171.339005 41.660599 -0.316989 0.090935 0.047846 -0.031945 -148.406006 -2.000000 2.000000 0.000000 -142.509995 125.351997 -7.728780 -37.685902 0.323043 0.083582 -0.058245 0.034914 -149.490005 15.474816 -10.073100 -9.705071 20.338383 4.532937 1.237033 -15.186406 1.441306 -1.278982 -3.278728 -12.875881 -5.858148 19.977394 -8.823764 -1.293340 -12.529193 -7.736383 -0.061014 
8.110651 43.323307 90.348396 -9.440900 5.655280 7.958440 -17.636801 -0.756175 3.484780 22.908100 4.634780 1.537940 34.193401 -6.190970 -0.926800 22.963800 0.885197 1.522590 2.000000 -2.000000 0.000000 -27.168501 -57.901001 171.630997 41.680099 -0.316958 0.090970 0.047782 -0.031624 -148.289001 -2.000000 2.000000 0.000000 -142.130005 125.578003 -7.289860 -37.705502 0.323014 0.083619 -0.058144 0.034460 -149.324005 15.662376 -9.968003 -9.784257 20.554344 4.554451 1.250499 -15.051101 1.176822 -1.356668 -3.321689 -12.802814 -5.506976 19.827637 -9.090533 -1.300712 -12.678702 -7.903658 0.026860 
8.025319 43.335011 90.679008 -9.366590 5.907080 8.490480 -17.664900 -0.840156 3.594290 23.103901 4.595080 1.581280 34.047798 -6.142320 -1.143370 22.816799 0.812335 1.417020 2.000000 -2.000000 0.000000 -27.033300 -58.116001 171.582993 41.680099 -0.316958 0.090970 0.047825 -0.031838 -148.367004 -2.000000 2.000000 0.000000 -141.925995 125.625999 -7.807560 -37.393002 0.323468 0.083028 -0.057789 0.032802 -148.718994 15.898778 -9.902925 -9.822133 20.709721 4.623642 1.262257 -14.825848 0.580306 -1.567769 -3.440706 -13.020722 -5.648190 19.934572 -9.188792 -1.311197 -12.790239 -7.646716 0.075320 
7.938414 43.351986 91.015236 -9.242780 6.130920 9.112220 -17.462700 -0.973174 3.516150 23.730700 4.553580 1.542070 34.032902 -6.419190 -1.226150 22.913300 0.645345 1.380980 2.000000 -2.000000 0.000000 -26.535999 -58.343399 170.371994 41.338299 -0.317499 0.090359 0.047523 -0.030309 -147.809998 -2.000000 2.000000 0.000000 -142.412003 125.185997 -8.052440 -37.285500 0.323624 0.082824 -0.057936 0.033498 -148.973007 15.980445 -9.795554 -9.774618 20.969807 4.671130 1.271061 -14.458068 0.190376 -1.676286 -3.455166 -13.159162 -5.762167 19.879667 -9.356549 -1.315306 -12.607287 -7.663435 0.167256 
7.839118 43.373070 91.373489 -9.087150 6.220400 9.652220 -17.717199 -0.879204 3.434710 23.545401 4.739670 1.517480 34.121799 -6.264710 -1.166850 22.953199 0.774427 1.396510 2.000000 -2.000000 0.000000 -27.110701 -58.088299 170.869995 41.533600 -0.317190 0.090708 0.047606 -0.030738 -147.966995 -2.000000 2.000000 0.000000 -142.393997 125.459999 -7.680210 -37.383202 0.323483 0.083010 -0.058005 0.033819 -149.089996 16.128180 -9.538895 -9.796944 21.173096 4.705360 1.287292 -14.242933 -0.267243 -1.775019 -3.610603 -13.225371 -5.766822 19.962906 -9.270341 -1.325590 -12.554916 -7.478454 0.134357 
7.748270 43.384777 91.736786 -8.957540 6.666490 10.045700 -18.706301 -1.074830 3.445110 21.869400 4.588640 1.462910 34.852798 -5.859800 -1.347990 23.364100 0.863751 1.346510 2.000000 -2.000000 0.000000 151.123993 -122.385002 -7.108300 41.445702 -0.317329 0.090551 0.047471 -0.030040 -147.712997 -2.000000 2.000000 0.000000 -140.973007 126.567001 -6.198490 -37.627300 0.323128 0.083472 -0.057999 0.033792 -149.080002 16.350264 -9.741786 -9.982442 21.254753 4.699678 1.296014 -13.751387 -0.686556 -1.880935 -3.763206 -13.693747 -5.833677 20.182169 -9.360031 -1.349035 -12.045927 -7.181363 0.265194 
7.635944 43.399311 92.109528 -8.873910 6.928610 10.542900 -17.329000 -1.050590 3.391970 24.712999 4.986920 1.495080 33.730301 -6.483690 -1.198880 22.884399 0.710207 1.334410 2.000000 -2.000000 0.000000 -26.145000 -58.464001 168.947006 41.074600 -0.317913 0.089886 0.047360 -0.029449 -147.498001 -2.000000 2.000000 0.000000 36.623699 55.225300 171.597000 -37.607800 0.323156 0.083435 -0.058127 0.034380 -149.294998 16.527355 -9.632403 -9.891250 21.564016 4.798591 1.314272 -13.469172 -1.030606 -1.990755 -3.765633 -13.745084 -5.589242 20.144020 -9.631231 -1.361538 -11.819665 -7.220649 0.423071 
7.508506 43.405994 92.496864 -8.786490 6.988160 10.984100 -18.688101 -1.080530 3.374130 22.428400 4.802140 1.436320 34.468399 -5.991080 -1.394910 23.100300 0.856485 1.280740 2.000000 -2.000000 0.000000 151.054001 -122.100998 -7.519300 41.191799 -0.317729 0.090096 0.047549 -0.030443 -147.858994 -2.000000 2.000000 0.000000 -141.490005 126.459000 -6.276350 -37.832401 0.322829 0.083859 -0.058197 0.034700 -149.412003 16.627958 -9.295229 -9.838593 21.866848 4.833456 1.321513 -12.939832 -1.398394 -2.040457 -3.719447 -13.617373 -5.459630 19.960890 -9.743167 -1.370307 -11.570060 -7.422154 0.469129 
7.384486 43.413712 92.890160 -8.810060 7.190450 11.320500 -18.992399 -1.152730 3.349310 21.967800 4.764190 1.406690 34.710800 -5.732850 -1.325750 23.286699 0.965737 1.331960 2.000000 -2.000000 0.000000 150.595001 -122.180000 -6.943320 41.230900 -0.317668 0.090167 0.047685 -0.031141 -148.113007 -2.000000 2.000000 0.000000 -140.856995 126.734001 -5.964520 -37.832401 0.322829 0.083859 -0.057999 0.033792 -149.080002 16.963913 -9.105848 -9.766455 22.133078 4.899585 1.334149 -12.451443 -1.728172 -2.100649 -3.692944 -13.786292 -5.593397 20.089916 -9.770505 -1.382241 -11.435736 -7.537939 0.495267 
7.254274 43.433384 93.312447 -8.790190 7.181180 11.890800 -19.493799 -1.355410 3.338480 21.300900 4.306280 1.365060 34.875099 -5.633590 -1.508220 23.276501 0.901283 1.260410 2.000000 -2.000000 0.000000 149.608002 -122.233002 -5.586010 41.318802 -0.317530 0.090324 0.047712 -0.031275 -148.162003 -2.000000 2.000000 0.000000 -139.813995 127.272003 -5.458030 -37.783600 0.322900 0.083767 -0.057890 0.033284 -148.893997 17.032152 -8.715998 -9.922382 22.761976 4.959495 1.377008 -12.120492 -1.955182 -2.142462 -3.449619 -13.502398 -5.566466 19.802061 -9.933488 -1.354047 -11.456725 -7.821984 0.547416 
7.120760 43.445087 93.741470 -8.760510 7.664530 12.103900 -18.750299 -1.360300 3.378890 22.878599 4.615360 1.407830 34.447800 -5.901750 -1.425320 23.169001 0.902107 1.248960 2.000000 -2.000000 0.000000 150.856003 -121.730003 -7.332880 41.308998 -0.317545 0.090307 0.047749 -0.031463 -148.229996 -2.000000 2.000000 0.000000 -141.401001 126.283997 -6.168510 -37.812901 0.322857 0.083822 -0.058425 0.035714 -149.783005 17.432495 -8.842746 -9.884191 22.905432 4.991115 1.383876 -11.620782 -2.240698 -2.174573 -3.534832 -13.963325 -5.708581 19.971832 -10.083069 -1.407046 -11.301054 -7.615376 0.661494 
6.973485 43.447662 94.185196 -8.722510 7.732900 12.264900 -20.136600 -1.222390 3.360350 20.517401 4.736330 1.383490 35.212601 -5.673640 -1.574330 23.452700 0.955183 1.224080 2.000000 -2.000000 0.000000 147.830994 -122.413002 -3.594250 41.621498 -0.317051 0.090865 0.047819 -0.031811 -148.356995 -2.000000 2.000000 0.000000 -139.789001 128.173004 -4.354680 -38.340199 0.322081 0.084813 -0.058197 0.034700 -149.412003 17.647007 -8.536718 -9.558078 23.133856 5.089397 1.373911 -11.017897 -2.574315 -2.181812 -3.611949 -14.031433 -5.844743 20.102703 -9.948806 -1.391501 -11.138806 -7.259793 0.643412 
